PERFORMER "Armin van Buuren"
TITLE "Essential Mix (2009-05-30) [TMB]"
FILE "Essential Mix_Armin van Buuren_2009_05_30.mp3" MP3
  TRACK 01 AUDIO
    PERFORMER "Essential Mix"
    TITLE "Intro"
    INDEX 01 00:00:00
  TRACK 02 AUDIO
    PERFORMER "The Blizzard with Gaate"
    TITLE "Iselilja (Sunn Jellie & The Blizzard Dub Remix)"
    INDEX 01 01:57:25
  TRACK 03 AUDIO
    PERFORMER "Moonbeam feat. Avis Vox"
    TITLE "About You"
    INDEX 01 07:44:00
  TRACK 04 AUDIO
    PERFORMER "Way Out West"
    TITLE "Jupiter"
    INDEX 01 11:25:63
  TRACK 05 AUDIO
    PERFORMER "Ron Hagen & Pascal M"
    TITLE "Riddles In The Sand"
    INDEX 01 15:59:00
  TRACK 06 AUDIO
    PERFORMER "Q.T. Quartet"
    TITLE "Hold That Sucker Down (Jerome Isma-Ae Mix)"
    INDEX 01 20:31:74
  TRACK 07 AUDIO
    PERFORMER "Josh Gabriel pres. Winter Kills"
    TITLE "Deep Down"
    INDEX 01 28:20:74
  TRACK 08 AUDIO
    PERFORMER "Andy Moor & Ashley Wallbridge feat. Meighan Nealon"
    TITLE "Faces"
    INDEX 01 35:08:17
  TRACK 09 AUDIO
    PERFORMER "Purple Haze"
    TITLE "Bliksem"
    INDEX 01 41:40:74
  TRACK 10 AUDIO
    PERFORMER "Gaia"
    TITLE "Tuvan"
    INDEX 01 46:06:23
  TRACK 11 AUDIO
    PERFORMER "Lange vs. Andy Moor"
    TITLE "Stadium Four"
    INDEX 01 52:21:69
  TRACK 12 AUDIO
    PERFORMER "Klauss Goulart"
    TITLE "Deep Universe (M6 Remix)"
    INDEX 01 56:54:00
  TRACK 13 AUDIO
    PERFORMER "Alex M.O.R.P.H. feat. Ana Criado"
    TITLE "Sunset Boulevard"
    INDEX 01 61:52:59
  TRACK 14 AUDIO
    PERFORMER "Neptune Project"
    TITLE "Aztec"
    INDEX 01 66:35:00
  TRACK 15 AUDIO
    PERFORMER "Cosmic Gate vs. Armin van Buuren"
    TITLE "F.A.V. Rain (Armin van Buuren Mashup)"
    INDEX 01 72:39:37
  TRACK 16 AUDIO
    PERFORMER "Robert Nickson"
    TITLE "Circles (Andy Blueman Remix) [Live Guitar by Eller van Buuren]"
    INDEX 01 78:29:74
  TRACK 17 AUDIO
    PERFORMER "Darren Tate & Jono Grant"
    TITLE "Let The Light Shine In (Filo & Peri 2009 Remix) (Armin van Buuren Edit)"
    INDEX 01 84:48:00
  TRACK 18 AUDIO
    PERFORMER "Claudia Cazacu feat. Audrey Gallagher"
    TITLE "Free Fallin'"
    INDEX 01 90:52:50
  TRACK 19 AUDIO
    PERFORMER "Stoneface & Terminal vs. Rex Mundi feat. Susana"
    TITLE "Stardust vs. Nothing At All (Armin van Buuren Mashup)"
    INDEX 01 95:18:74
  TRACK 20 AUDIO
    PERFORMER "Lemon & Einar K"
    TITLE "The Oslo Syndrome (Jorn van Deynhoven Remix)"
    INDEX 01 100:27:04
  TRACK 21 AUDIO
    PERFORMER "3rd Moon"
    TITLE "Monsun"
    INDEX 01 105:21:32
  TRACK 22 AUDIO
    PERFORMER "Depeche Mode"
    TITLE "Peace (Sander van Doorn Remix)"
    INDEX 01 108:22:14
  TRACK 23 AUDIO
    PERFORMER "Armin van Buuren"
    TITLE "Blue Fear (Agnelli & Nelson Remix)"
    INDEX 01 113:52:64